<?xml version="1.0" standalone="no"?><!DOCTYPE svg PUBLIC "-//W3C//DTD SVG 1.1//EN" "http://www.w3.org/Graphics/SVG/1.1/DTD/svg11.dtd"><svg t="1591084969086" class="icon" viewBox="0 0 1024 1024" version="1.1" xmlns="http://www.w3.org/2000/svg" p-id="1857" xmlns:xlink="http://www.w3.org/1999/xlink" width="200" height="200"><defs><style type="text/css"></style></defs><path d="M829.2 380.8c-4.5 0-9.1 0.3-13.8 0.9l-134.3 16.8c-12.7 1.6-23.9 8.8-30.7 19.6-1 1.6-2 3.1-3 4.7-10.9 14.6-20.5 27.6-29.5 40-4.2 5.8-10.8 8.9-17.5 8.9-4.4 0-8.8-1.3-12.6-4.1-9.6-7-11.8-20.4-4.8-30.1 8-11 25.1-36.1 25.6-36.9 14.3-21.2 37.9-64.2 37.7-121.5V275c-2.2-94.5-83.5-168.2-178-168.2h-55.9c-29.5 0-50 29.1-40.2 56.9 10.8 30.3 19.2 69.7 15.7 115.4-4.1 53.9-23.1 95.2-37.4 119.8-3.8 6.5-5.7 13.8-5.7 21.2v422.5c0 22.3 17.2 40.8 39.4 42.5l415 31.9c2.8 0.2 5.5 0.3 8.2 0.3 54.8 0 101.2-42.2 105.5-97.8L937.6 498c4.8-64-46.1-117.2-108.4-117.2z" fill="#F9DB88" p-id="1858"></path><path d="M256.8 410.4h-128c-23.6 0-42.7 19.1-42.7 42.7v384c0 23.6 19.1 42.7 42.7 42.7h128c23.6 0 42.7-19.1 42.7-42.7v-384c0-23.6-19.1-42.7-42.7-42.7z" fill="#009F72" p-id="1859"></path></svg>